<svg width="250" height="250" viewBox="0 0 250 250" fill="none" xmlns="http://www.w3.org/2000/svg">
<g filter="url(#filter0_d)">
<path d="M209.859 171.402C210.753 165.344 210.753 159.156 209.859 153.098L218.728 146.695C219.759 145.965 220.206 144.461 219.862 143.043C217.559 133.762 213.606 125.34 208.45 118.379C207.659 117.305 206.388 117.047 205.356 117.777L196.487 124.18C192.741 120.184 188.444 117.09 183.803 115.027V102.223C183.803 100.762 182.978 99.4727 181.844 99.1719C174.178 97.0234 166.375 97.1094 159.087 99.1719C157.953 99.4727 157.128 100.762 157.128 102.223V115.027C152.488 117.09 148.191 120.184 144.444 124.18L135.575 117.777C134.578 117.047 133.272 117.305 132.481 118.379C127.325 125.34 123.372 133.762 121.069 143.043C120.725 144.461 121.206 145.965 122.203 146.695L131.072 153.098C130.178 159.156 130.178 165.344 131.072 171.402L122.203 177.805C121.172 178.535 120.725 180.039 121.069 181.457C123.372 190.738 127.325 199.117 132.481 206.121C133.272 207.195 134.544 207.453 135.575 206.723L144.444 200.32C148.191 204.316 152.488 207.41 157.128 209.473V222.277C157.128 223.738 157.953 225.027 159.087 225.328C166.753 227.477 174.556 227.391 181.844 225.328C182.978 225.027 183.803 223.738 183.803 222.277V209.473C188.444 207.41 192.741 204.316 196.487 200.32L205.356 206.723C206.353 207.453 207.659 207.195 208.45 206.121C213.606 199.16 217.559 190.738 219.862 181.457C220.206 180.039 219.725 178.535 218.728 177.805L209.859 171.402ZM170.5 183.09C161.288 183.09 153.828 173.723 153.828 162.25C153.828 150.777 161.322 141.41 170.5 141.41C179.678 141.41 187.172 150.777 187.172 162.25C187.172 173.723 179.712 183.09 170.5 183.09ZM77 121C101.303 121 121 96.3789 121 66C121 35.6211 101.303 11 77 11C52.6969 11 33 35.6211 33 66C33 96.3789 52.6969 121 77 121ZM146.163 218.324C145.372 217.809 144.581 217.207 143.825 216.648L141.109 218.625C139.047 220.086 136.709 220.902 134.372 220.902C130.625 220.902 127.016 218.926 124.438 215.488C118.147 206.98 113.334 196.625 110.619 185.582C108.728 177.977 111.272 169.941 116.772 165.945L119.488 163.969C119.453 162.852 119.453 161.734 119.488 160.617L116.772 158.641C111.272 154.688 108.728 146.609 110.619 139.004C110.928 137.758 111.375 136.512 111.719 135.266C110.412 135.137 109.141 134.75 107.8 134.75H102.059C94.4281 139.133 85.9375 141.625 77 141.625C68.0625 141.625 59.6063 139.133 51.9406 134.75H46.2C20.6937 134.75 0 160.617 0 192.5V210.375C0 221.762 7.39062 231 16.5 231H137.5C140.972 231 144.203 229.625 146.85 227.348C146.438 225.715 146.163 224.039 146.163 222.277V218.324Z" fill="black"/>
</g>
<defs>
<filter id="filter0_d" x="0" y="0" width="250" height="250" filterUnits="userSpaceOnUse" color-interpolation-filters="sRGB">
<feFlood flood-opacity="0" result="BackgroundImageFix"/>
<feColorMatrix in="SourceAlpha" type="matrix" values="0 0 0 0 0 0 0 0 0 0 0 0 0 0 0 0 0 0 127 0"/>
<feOffset dx="15" dy="4"/>
<feGaussianBlur stdDeviation="7.5"/>
<feColorMatrix type="matrix" values="0 0 0 0 0 0 0 0 0 0 0 0 0 0 0 0 0 0 0.25 0"/>
<feBlend mode="normal" in2="BackgroundImageFix" result="effect1_dropShadow"/>
<feBlend mode="normal" in="SourceGraphic" in2="effect1_dropShadow" result="shape"/>
</filter>
</defs>
</svg>
